<?xml version="1.0" encoding="utf-8"?>
<!-- Generator: Adobe Illustrator 23.0.0, SVG Export Plug-In . SVG Version: 6.00 Build 0)  -->
<svg version="1.1" id="Layer_1" xmlns="http://www.w3.org/2000/svg" xmlns:xlink="http://www.w3.org/1999/xlink" x="0px" y="0px"
	 viewBox="0 0 5000 1936.3" style="enable-background:new 0 0 5000 1936.3;" xml:space="preserve">
<style type="text/css">
	.st0{fill:#FFFFFF;}
</style>
<g>
	<path class="st0" d="M936.8,1867.5c336.9,0,630.6-188.2,781.6-465c151,276.8,444.7,465,781.6,465s630.6-188.2,781.6-464.9
		c151.1,276.7,444.8,464.9,781.6,464.9c490.6,0,889.8-399.2,889.8-889.8c0-490.7-399.2-889.8-889.8-889.8
		c-60.9,0-110.3,49.4-110.3,110.3s49.4,110.3,110.3,110.3c369,0,669.3,300.3,669.3,669.3s-300.2,669.3-669.3,669.3
		c-369,0-669.3-300.3-669.3-669.3c0-10.8-2-21-4.9-30.9C3372.6,470.5,2980.3,88,2500,88c-60.9,0-110.3,49.4-110.3,110.3
		s49.4,110.3,110.3,110.3c369,0,669.3,300.3,669.3,669.3s-300.2,669.3-669.3,669.3c-369,0-669.2-300.3-669.2-669.3
		c0-10.9-2.1-21.2-5-31.1C1809.4,470.5,1417.1,88,936.9,88c-60.9,0-110.2,49.4-110.2,110.3S876,308.6,936.9,308.6
		c369,0,669.3,300.3,669.3,669.3s-300.3,669.3-669.3,669.3s-669.3-300.3-669.3-669.3c0-60.9-49.4-110.3-110.2-110.3
		S47,916.8,47,977.7C47,1468.3,446.2,1867.5,936.8,1867.5z"/>
	<g>
		<path class="st0" d="M578,1315.1V666.6h193.7L928.8,1072l157.6-405.4h193.7v648.5H1142V847.5l-182.8,467.6h-60.3L716.1,847.5
			v467.6H578z"/>
	</g>
	<g>
		<path class="st0" d="M2241,788.2V666.7h518v121.5h-189.4v526.9h-138.1V788.2H2241z"/>
	</g>
	<g>
		<path class="st0" d="M3792.8,788.2V666.7h517.9v121.5h-189.4v526.9h-138.1V788.2H3792.8z"/>
	</g>
</g>
</svg>
