<?xml version="1.0" encoding="utf-8"?>
<!-- Generator: Adobe Illustrator 23.0.0, SVG Export Plug-In . SVG Version: 6.00 Build 0)  -->
<svg version="1.1" id="Layer_1" xmlns="http://www.w3.org/2000/svg" xmlns:xlink="http://www.w3.org/1999/xlink" x="0px" y="0px"
	 viewBox="0 0 5000 5000" style="enable-background:new 0 0 5000 5000;" xml:space="preserve">
<style type="text/css">
	.st0{fill:url(#SVGID_1_);}
	.st1{fill:#282827;}
</style>
<g>
	
		<linearGradient id="SVGID_1_" gradientUnits="userSpaceOnUse" x1="264.313" y1="2498.0488" x2="5328.5996" y2="2498.0488" gradientTransform="matrix(-1 0 0 -1 4999.7158 4998.0488)">
		<stop  offset="0" style="stop-color:#E12B26"/>
		<stop  offset="1" style="stop-color:#F8951D"/>
	</linearGradient>
	<path class="st0" d="M936.8,3389.8c336.9,0,630.6-188.2,781.6-465c151,276.8,444.7,465,781.6,465c336.9,0,630.6-188.2,781.6-464.9
		c151.1,276.7,444.8,464.9,781.6,464.9c490.6,0,889.8-399.2,889.8-889.8c0-490.7-399.2-889.8-889.8-889.8
		c-60.9,0-110.3,49.4-110.3,110.3s49.4,110.3,110.3,110.3c369,0,669.3,300.3,669.3,669.3c0,369-300.2,669.3-669.3,669.3
		c-369,0-669.3-300.3-669.3-669.3c0-10.8-2-21-4.9-30.9c-16.4-476.4-408.7-858.9-889-858.9c-60.9,0-110.3,49.4-110.3,110.3
		s49.4,110.3,110.3,110.3c369,0,669.3,300.3,669.3,669.3c0,369-300.2,669.3-669.3,669.3c-369,0-669.2-300.3-669.2-669.3
		c0-10.9-2.1-21.2-5-31.1c-16.4-476.3-408.7-858.8-888.9-858.8c-60.9,0-110.2,49.4-110.2,110.3s49.3,110.3,110.2,110.3
		c369,0,669.3,300.3,669.3,669.3c0,369-300.3,669.3-669.3,669.3c-369,0-669.3-300.3-669.3-669.3c0-60.9-49.4-110.3-110.2-110.3
		S47,2439.1,47,2500C47,2990.6,446.2,3389.8,936.8,3389.8z"/>
	<g>
		<path class="st1" d="M578,2837.4v-648.5h193.7l157.1,405.4l157.6-405.4h193.7v648.5H1142v-467.6l-182.8,467.6h-60.3l-182.8-467.6
			v467.6H578z"/>
	</g>
	<g>
		<path class="st1" d="M2241,2310.5v-121.5H2759v121.5h-189.4v526.9h-138.1v-526.9H2241z"/>
	</g>
	<g>
		<path class="st1" d="M3792.8,2310.5v-121.5h517.9v121.5h-189.4v526.9h-138.1v-526.9H3792.8z"/>
	</g>
</g>
</svg>
